<svg xmlns="http://www.w3.org/2000/svg" width="81.733" height="81.526" viewBox="0 0 81.733 81.526">
  <g id="convenient" transform="translate(0 -0.651)">
    <g id="Group_12" data-name="Group 12" transform="translate(0 0.651)">
      <path id="Path_215" data-name="Path 215" d="M376.585,219.2a1.2,1.2,0,0,0-1.693,0l-.741.739-.741-.739a1.2,1.2,0,1,0-1.691,1.7l.736.734-.736.734a1.2,1.2,0,0,0,1.691,1.7l.741-.739.741.739a1.2,1.2,0,1,0,1.691-1.7l-.736-.734.736-.734A1.2,1.2,0,0,0,376.585,219.2Z" transform="translate(-312.085 -184.014)" fill="#c1713b"/>
      <path id="Path_216" data-name="Path 216" d="M105.827,224.308a1.2,1.2,0,0,0,1.693,0l.741-.739.741.739a1.2,1.2,0,0,0,1.691-1.7l-.736-.734.736-.734a1.2,1.2,0,0,0-1.691-1.7l-.741.739-.741-.739a1.2,1.2,0,0,0-1.691,1.7l.736.734-.736.734a1.2,1.2,0,0,0,0,1.693Z" transform="translate(-88.64 -184.228)" fill="#c1713b"/>
      <path id="Path_217" data-name="Path 217" d="M80.536,63.915a1.2,1.2,0,0,0,1.2-1.2V49.782a4.252,4.252,0,0,0-4.172-4.242V31.828a5.9,5.9,0,0,0-5.894-5.882h-7.4c1.558-1.289,3.019-2.541,4.062-3.6A4.379,4.379,0,0,0,66.5,15.123l-6.772-2.982L52.179,8.814c-.721-4.312-3.178-5.555-5-5.862C45.03.629,40.994-.01,36.926,1.378c-3.963,1.353-6.719,4.179-7.413,7.451L15.228,15.123A4.384,4.384,0,0,0,13.4,22.356c1.038,1.052,2.5,2.3,4.055,3.59H10.067a5.9,5.9,0,0,0-5.894,5.882V45.54A4.252,4.252,0,0,0,0,49.782V62.718a1.2,1.2,0,1,0,2.395,0V49.782a1.855,1.855,0,0,1,1.857-1.849H9.523a1.856,1.856,0,0,1,1.857,1.849v30H2.395V67.709a1.2,1.2,0,0,0-2.395,0v13.27a1.2,1.2,0,0,0,1.2,1.2H80.536a1.2,1.2,0,0,0,1.2-1.2V67.709a1.2,1.2,0,0,0-2.395,0V79.782H70.353v-30a1.855,1.855,0,0,1,1.857-1.849h5.272a1.855,1.855,0,0,1,1.857,1.849V62.718a1.2,1.2,0,0,0,1.2,1.2ZM52.384,16.1s0-4.469,0-4.582l6.377,2.811,6.837,3.01a1.21,1.21,0,0,0,.143.052,1.931,1.931,0,0,1,1.362,1.4,1.9,1.9,0,0,1-.487,1.88c-1.386,1.407-6.141,5.282-6.273,5.39l-2.97-3.586,1.6-.888a1.2,1.2,0,0,0-.045-2.116l-6.546-3.287c0-.028,0-.056,0-.084ZM29.727,50.562h0l-1.633.464-.021-.363c-.213-3.589,2.478-4.2,3.307-4.3a4.563,4.563,0,0,1,4.7,2.4Zm1.8,10.661a4.764,4.764,0,0,1-.441,3.75,5.039,5.039,0,0,1-2.342,2.041L25.122,54.361l4.108-1.168,2.251,7.89,0,.008Zm-.436-17.24c-.077.009-.153.021-.23.033V38.882c0-2.984-2.045-6.12-3.8-7.9-.987-1-2.353-2.178-3.823-3.4l3.246-3.923,1.08.6a9.126,9.126,0,0,0,4.919,1.183c.246,0,.5,0,.766-.012h.9a11.507,11.507,0,0,0,13.428,0h.9c.265.007.52.012.766.012a9.126,9.126,0,0,0,4.919-1.183l1.08-.6L58.5,27.584c-1.47,1.22-2.837,2.4-3.822,3.4-1.754,1.777-3.8,4.912-3.8,7.9v5.672L38.407,48.1a6.9,6.9,0,0,0-7.32-4.112Zm.659-27.437H33.1a16.5,16.5,0,0,0,7.414-2.115c2.389-1.158,3.7-1.72,5.172-.816a17.477,17.477,0,0,1,2.3,1.557c.386.3.945.745,1.975,1.515a9.079,9.079,0,0,1-3.456,6.552,1.2,1.2,0,0,0-.13.1,9.125,9.125,0,0,1-11.05-.01,1.216,1.216,0,0,0-.1-.08,9.076,9.076,0,0,1-3.482-6.706ZM52.08,18.715,55.83,20.6,53,22.17a6.4,6.4,0,0,1-2.953.859,11.437,11.437,0,0,0,2.03-4.314ZM31.735,10.457c0-3.525,3.213-5.873,5.965-6.812s6.283-.949,7.919,1.167a1.2,1.2,0,0,0,.842.46c2.407.211,3.595,2.415,3.53,6.55,0,.079,0,1.873,0,1.873-.205-.16-.371-.291-.513-.4a19.636,19.636,0,0,0-2.531-1.716c-2.654-1.635-5.1-.448-7.472.7A14.124,14.124,0,0,1,33.1,14.152H31.735v-3.7Zm-2.09,8.262a11.438,11.438,0,0,0,2.03,4.31,6.391,6.391,0,0,1-2.949-.859L25.9,20.6ZM15.119,20.684a1.9,1.9,0,0,1-.491-1.89,1.919,1.919,0,0,1,1.358-1.4,1.166,1.166,0,0,0,.143-.053l13.212-5.82s0,4.639,0,4.669l-6.537,3.283a1.2,1.2,0,0,0-.045,2.116l1.594.887-2.969,3.587-.4-.324c-2.208-1.8-4.491-3.66-5.87-5.058Zm-5.6,24.855H6.567V31.828a3.5,3.5,0,0,1,3.5-3.488h10.32c1.907,1.559,3.77,3.11,4.968,4.323,1.547,1.571,3.109,4.1,3.109,6.219V44.9a6.152,6.152,0,0,0-2.781,5.9l.052.893-2.259.643h-9.7V49.782a4.253,4.253,0,0,0-4.252-4.244ZM23.8,58.438H13.775v-3.7h8.964Zm-.907,16.9a7.442,7.442,0,0,0-2,4.447H13.775V60.832H24.482l2.262,7.914.262,4.469a7.1,7.1,0,0,0-4.116,2.119ZM36.5,79.782H23.3a5.021,5.021,0,0,1,1.315-2.791,4.8,4.8,0,0,1,3.507-1.463H36.5Zm0-6.648H29.4l-.218-3.718a7.5,7.5,0,0,0,3.967-3.233,7.074,7.074,0,0,0,.9-4.516l2.446-.541ZM33.476,59.342l-1.942-6.8L53.129,46.4h0a4.163,4.163,0,0,1,4.281,1.041,4.662,4.662,0,0,1,1.248,4.435,3.845,3.845,0,0,1-3.146,2.584Zm34.482,20.44H38.894V60.832H67.958Zm0-21.344H48.634L56.029,56.8a6.843,6.843,0,0,0,3.727-2.066h8.2v3.7Zm7.208-12.9H72.21a4.253,4.253,0,0,0-4.252,4.244V52.34H61.009a7.046,7.046,0,0,0-1.9-6.583,6.484,6.484,0,0,0-5.845-1.836V38.882c0-2.118,1.563-4.649,3.113-6.219,1.2-1.214,3.059-2.765,4.966-4.323H71.667a3.5,3.5,0,0,1,3.5,3.488v13.71Z" transform="translate(0 -0.651)" fill="#c1713b"/>
      <path id="Path_218" data-name="Path 218" d="M38.027,327.327v-2.361a1.2,1.2,0,1,0-2.395,0v2.361a1.2,1.2,0,1,0,2.395,0Z" transform="translate(-29.944 -272.188)" fill="#c1713b"/>
      <path id="Path_219" data-name="Path 219" d="M461.34,324.966v2.361a1.2,1.2,0,1,0,2.395,0v-2.361a1.2,1.2,0,0,0-2.395,0Z" transform="translate(-387.694 -272.188)" fill="#c1713b"/>
    </g>
  </g>
</svg>
