<svg xmlns="http://www.w3.org/2000/svg" width="97.931" height="99.352" viewBox="0 0 97.931 99.352">
  <path id="service" d="M34.322,44.962a13.431,13.431,0,0,1,0-18.992c.294-.294.608-.579.938-.853a13.44,13.44,0,0,1,17.95.754,13.427,13.427,0,0,1,17.984,19.9L54.119,62.843a1.354,1.354,0,0,1-1.915,0Zm-1.225-9.5a10.687,10.687,0,0,0,3.139,7.581L53.161,59.972,69.28,43.853a10.721,10.721,0,1,0-15.2-15.125l0,0c-.03.03-.062.058-.093.085a1.355,1.355,0,0,1-1.9-.179q-.316-.382-.686-.75A10.715,10.715,0,0,0,36.984,27.2c-.249.207-.5.433-.748.684a10.687,10.687,0,0,0-3.14,7.581ZM51.683,1.514a1.354,1.354,0,1,1,2.708,0V9.338a1.354,1.354,0,1,1-2.708,0Zm48.629,50.572a1.348,1.348,0,1,1,0,2.7H91.666a1.348,1.348,0,0,1,0-2.7Zm-4.4-25.959a1.348,1.348,0,0,1,1.364,2.326L90.715,32.3a1.348,1.348,0,0,1-1.364-2.326ZM76.964,7.568A1.35,1.35,0,1,1,79.313,8.9l-3.664,6.472A1.35,1.35,0,1,1,73.3,14.04ZM5.084,53.547a1.354,1.354,0,1,1,0-2.708h8.241a1.354,1.354,0,1,1,0,2.708ZM8.961,27.833a1.348,1.348,0,1,1,1.364-2.326l6.935,4.068A1.348,1.348,0,1,1,15.9,31.9ZM26.816,8.7a1.35,1.35,0,1,1,2.348-1.334l3.344,5.909a1.35,1.35,0,0,1-2.348,1.334ZM16.35,76.317l4.589-2.082a2.911,2.911,0,0,1,3.629,1.1l.068-.054c.505-.4,1.028-.823,1.577-1.278,7.987-6.667,11.5-6.313,24.356-5.022l.656.066a4.892,4.892,0,0,1,4.229,2.521,3.773,3.773,0,0,1,.34,2.084l0,.028,4.283-2.094a8.337,8.337,0,0,1,4.987-.754,6.594,6.594,0,0,1,3.309,1.491l1.511-.738a8.389,8.389,0,0,1,4.559-.813,7.232,7.232,0,0,1,2.788.867A4.693,4.693,0,0,1,79.048,73.4a7.822,7.822,0,0,1,5.5.378,4.187,4.187,0,0,1,1.575,1.352,3.017,3.017,0,0,1,.517,2.09,4.77,4.77,0,0,1-2.632,3.326l-12.16,7.239c-.618.368-4.631,1.851-8.675,3.209-3.116,1.046-6.3,2.04-8.017,2.422a1.166,1.166,0,0,1-.233.03l-1.348.06c-1.414.062-3.11.129-6.539.27-6.265.256-13.745.559-14.817.6A2.9,2.9,0,0,1,32,95.645a3.059,3.059,0,0,1-1.559,1.593l-4,1.815c-1.742.791-3.65.706-4.517-1.436L15.012,80.7a3.13,3.13,0,0,1-.221-2.788,3.056,3.056,0,0,1,1.559-1.595ZM25.667,77.9l5.659,13.852a6.632,6.632,0,0,1,.756-.078c.948-.038,8.52-.344,14.849-.6,3.251-.133,6.2-.254,7.762-.324,1.632-.376,4.645-1.32,7.625-2.32,3.909-1.312,7.685-2.684,8.158-2.967l12.16-7.239c.877-.523,1.276-.98,1.32-1.338a.393.393,0,0,0-.072-.26,1.525,1.525,0,0,0-.571-.453,5.491,5.491,0,0,0-4.426.125l-14.234,5.81a17.351,17.351,0,0,1-4.529.266l-.1,0c-1.207-.036-2.408-.1-3.352-.179a16.108,16.108,0,0,1-2.259-.288L39.505,77.938v0a1.348,1.348,0,0,1,.374-2.652l9.562.227A3.808,3.808,0,0,0,52.8,74.1a1.761,1.761,0,0,0,.3-.769,1.084,1.084,0,0,0-.085-.6c-.233-.485-.889-.881-2.062-1l-.656-.066c-11.967-1.2-15.242-1.531-22.358,4.408-.587.491-1.131.933-1.64,1.332-.211.175-.424.34-.634.5Zm-3.981-1.04-4.225,1.919c-.217.1-.215.26-.143.435l7.1,17.382c.139.27.167.328.41.217l3.76-1.706c1.223-.555,1.006-.3.64-1.364q-3.37-8.255-6.742-16.509C22.245,76.673,22.06,76.7,21.686,76.864ZM52.095,78.5l1.76.469c.414-.089.811-.191,1.161-.288a9.116,9.116,0,0,0,1.048-.34l9.448-4.615a4.83,4.83,0,0,0-.877-.221,5.655,5.655,0,0,0-3.378.521ZM63.637,79.6l12.791-5.221a2.606,2.606,0,0,0-.537-.394,4.51,4.51,0,0,0-1.742-.529,5.681,5.681,0,0,0-3.088.559l-11.54,5.637a26.967,26.967,0,0,0,3.865,0A.967.967,0,0,0,63.637,79.6Z" transform="translate(-3.73 -0.16)" fill="#c1713b" fill-rule="evenodd"/>
</svg>
