<svg xmlns="http://www.w3.org/2000/svg" width="95.723" height="81.827" viewBox="0 0 95.723 81.827">
  <g id="tooth" transform="translate(0 -36)">
    <g id="Group_14" data-name="Group 14" transform="translate(18.527 59.159)">
      <g id="Group_13" data-name="Group 13" transform="translate(0 0)">
        <path id="Path_220" data-name="Path 220" d="M99.088,156.517V156H96v.517c0,.885.023,1.769.068,2.649l3.085-.157C99.111,158.18,99.088,157.351,99.088,156.517Z" transform="translate(-96 -156)" fill="#c1713b"/>
      </g>
    </g>
    <g id="Group_16" data-name="Group 16" transform="translate(18.857 65.158)">
      <g id="Group_15" data-name="Group 15">
        <path id="Path_221" data-name="Path 221" d="M100.78,187.088l-3.068.35a51.633,51.633,0,0,0,7.838,21.978l2.6-1.671A48.566,48.566,0,0,1,100.78,187.088Z" transform="translate(-97.712 -187.088)" fill="#c1713b"/>
      </g>
    </g>
    <g id="Group_18" data-name="Group 18" transform="translate(37.086 44.047)">
      <g id="Group_17" data-name="Group 17" transform="translate(0 0)">
        <path id="Path_222" data-name="Path 222" d="M211.992,77.7a16.212,16.212,0,0,1-18.1,0l-1.728,2.56a19.3,19.3,0,0,0,21.551,0Z" transform="translate(-192.168 -77.696)" fill="#c1713b"/>
      </g>
    </g>
    <g id="Group_20" data-name="Group 20" transform="translate(0 88.493)">
      <g id="Group_19" data-name="Group 19">
        <path id="Path_223" data-name="Path 223" d="M13.9,308H10.807A10.821,10.821,0,0,1,0,318.807V321.9A10.821,10.821,0,0,1,10.807,332.7H13.9A10.821,10.821,0,0,1,24.7,321.9v-3.088A10.821,10.821,0,0,1,13.9,308Zm-1.544,18.365a13.963,13.963,0,0,0-6.014-6.014,13.963,13.963,0,0,0,6.014-6.014,13.963,13.963,0,0,0,6.014,6.014A13.963,13.963,0,0,0,12.351,326.365Z" transform="translate(0 -308)" fill="#c1713b"/>
      </g>
    </g>
    <g id="Group_22" data-name="Group 22" transform="translate(12.351 36)">
      <g id="Group_21" data-name="Group 21" transform="translate(0 0)">
        <path id="Path_224" data-name="Path 224" d="M136.564,48.351h-2.957A19.72,19.72,0,0,0,115.415,36,18.887,18.887,0,0,0,105,38.994a10.069,10.069,0,0,1-10.986,0A18.879,18.879,0,0,0,83.6,36,19.626,19.626,0,0,0,64,55.6v4.071a57.493,57.493,0,0,0,9.151,31.152,54.431,54.431,0,0,1,7.031,16.257l1.68,6.722a5.3,5.3,0,0,0,10.392-.5l3.463-23.094a3.835,3.835,0,0,1,7.585,0l3.463,23.094a5.305,5.305,0,0,0,10.394.5l1.681-6.722a54.4,54.4,0,0,1,7.033-16.257,58.061,58.061,0,0,0,7.6-17.934c0,.054.006.107.006.161h3.088a10.821,10.821,0,0,1,10.807-10.807V59.159A10.821,10.821,0,0,1,136.564,48.351Zm-13.29,40.806a57.513,57.513,0,0,0-7.429,17.181l-1.683,6.722a2.216,2.216,0,0,1-4.341-.21l-3.463-23.094a6.924,6.924,0,0,0-13.695,0L89.2,112.85a2.218,2.218,0,0,1-4.345.21l-1.681-6.722a57.44,57.44,0,0,0-7.429-17.181,54.421,54.421,0,0,1-8.657-29.481V55.6A16.535,16.535,0,0,1,83.6,39.088a15.791,15.791,0,0,1,8.715,2.487,13.123,13.123,0,0,0,14.378,0,15.8,15.8,0,0,1,8.717-2.487,16.575,16.575,0,0,1,16.332,13.994l.065,1.005a10.8,10.8,0,0,1-9.143,5.072v3.088a10.791,10.791,0,0,1,8.793,4.547A54.855,54.855,0,0,1,123.274,89.157ZM135.02,66.716a13.963,13.963,0,0,0-6.014-6.014,13.963,13.963,0,0,0,6.014-6.014,13.963,13.963,0,0,0,6.014,6.014A13.963,13.963,0,0,0,135.02,66.716Z" transform="translate(-64 -36)" fill="#c1713b"/>
      </g>
    </g>
  </g>
</svg>
